<svg width="47" height="40" viewBox="0 0 47 40" fill="none" xmlns="http://www.w3.org/2000/svg">
<path d="M9.6852 10.9768C9.50633 11.1557 9.11149 11.3676 8.41807 11.6348C8.11336 11.7522 7.78296 11.8691 7.42504 11.9958C7.39877 12.0051 7.37234 12.0144 7.34577 12.0238C6.96215 12.1596 6.5522 12.3056 6.14102 12.4659C4.56622 13.0799 2.63546 14.0186 1.90412 15.8992C1.24217 17.6013 1.36073 19.0683 1.63935 20.3072C1.74044 20.7567 1.86799 21.1961 1.98124 21.5862C2.01824 21.7137 2.05371 21.8358 2.08623 21.9514C2.22587 22.4476 2.31831 22.8435 2.3391 23.1969C2.3715 23.7477 2.26854 24.2702 2.09318 24.8267C2.00469 25.1075 1.90123 25.3868 1.78914 25.686C1.78154 25.7063 1.77388 25.7267 1.76619 25.7472C1.66309 26.0221 1.55284 26.3161 1.45519 26.6142C1.24381 27.2594 1.06913 27.9868 1.11063 28.7976C1.15274 29.6203 1.4137 30.4678 1.9816 31.367L2.73875 30.8888L1.9816 31.367C3.46025 33.7082 5.47335 34.5219 7.49347 34.6844C8.47877 34.7637 9.4617 34.6894 10.3701 34.5814C10.7837 34.5322 11.1907 34.4749 11.5765 34.4205C11.6148 34.4151 11.6528 34.4098 11.6906 34.4045C12.1145 34.3448 12.51 34.2904 12.8838 34.251C13.1693 34.221 13.3637 34.2563 13.5117 34.3134C13.6648 34.3724 13.8186 34.4742 13.9969 34.6449C14.1821 34.8222 14.3667 35.0466 14.5985 35.3403C14.6281 35.3778 14.6585 35.4164 14.6896 35.456C14.891 35.7121 15.1232 36.0075 15.3857 36.3011C16.0088 36.9978 16.8301 37.7182 18.0772 38.222C19.3141 38.7217 20.9099 38.9843 23.0545 38.8684C24.7521 38.7766 26.0085 38.2556 26.9928 37.5275C27.9544 36.8162 28.6209 35.9301 29.1598 35.2051C29.7373 34.4283 30.1221 33.9139 30.5779 33.621C30.9368 33.3903 31.4066 33.2597 32.28 33.5509C34.63 34.3342 37.519 34.3949 40.0309 33.1394C42.5828 31.8639 44.6115 29.2971 45.3103 25.1041C46.0099 20.9065 44.8781 17.3141 42.968 14.8872C41.089 12.4998 38.3337 11.1233 35.8145 11.7279C34.9274 11.9408 34.4727 11.8312 34.1955 11.6864C33.8751 11.5192 33.6296 11.2302 33.2552 10.7382C33.2365 10.7136 33.2174 10.6885 33.198 10.6628C32.8637 10.2219 32.4205 9.6374 31.7634 9.20765C31.03 8.728 30.1057 8.47995 28.8694 8.57506C27.4221 8.68638 26.6881 8.27302 26.1924 7.75292C25.9192 7.46634 25.69 7.11573 25.4632 6.7067C25.3499 6.50243 25.2425 6.29354 25.1291 6.073L25.1277 6.07017C25.0171 5.85505 24.9 5.62711 24.7768 5.40643C24.0275 4.06392 22.6437 2.67914 20.8806 1.85548C19.0945 1.02104 16.8936 0.753751 14.5858 1.72152C13.1639 2.31779 12.2196 3.12722 11.6049 4.0806C10.9995 5.01961 10.7581 6.03106 10.6265 6.95205C10.567 7.3688 10.5279 7.78437 10.4919 8.16758C10.4883 8.20597 10.4848 8.24403 10.4812 8.28174C10.4411 8.70602 10.4025 9.08666 10.342 9.44053C10.2205 10.1507 10.0282 10.6338 9.6852 10.9768Z" stroke="black" stroke-opacity="0.25" stroke-width="1.79104" stroke-linecap="round"/>
<path fill-rule="evenodd" clip-rule="evenodd" d="M21.1738 5.68265C22.1803 6.81848 22.7557 8.44574 23.1582 9.60456C23.6153 10.9211 23.9822 12.6409 23.7686 14.1725C23.6594 14.9548 23.3842 15.789 22.7888 16.4747C22.1696 17.1879 21.3125 17.6148 20.2912 17.735C18.5058 17.945 17.1627 17.2138 16.2252 16.0982C15.3623 15.0712 14.8312 13.7131 14.4384 12.5278C14.0556 11.3725 13.628 9.86231 13.6539 8.46329C13.6671 7.74794 13.7991 6.96799 14.194 6.25633C14.6056 5.51445 15.253 4.939 16.1215 4.59794C17.1211 4.20536 18.0956 4.09516 19.0157 4.3243C19.9335 4.55287 20.6395 5.07982 21.1738 5.68265ZM18.3043 7.18104C18.1045 7.1313 17.7631 7.11611 17.1977 7.33818C16.948 7.43625 16.8389 7.55738 16.7683 7.68462C16.6809 7.84209 16.605 8.10381 16.5974 8.51777C16.5815 9.37739 16.8601 10.4764 17.233 11.6017C17.6131 12.7488 18.0036 13.6384 18.4791 14.2042C18.8801 14.6814 19.2923 14.8882 19.9472 14.8111C20.3264 14.7665 20.4813 14.642 20.5658 14.5446C20.6741 14.4198 20.7944 14.1844 20.8528 13.7657C20.9743 12.8951 20.7648 11.6869 20.3771 10.5703C19.9388 9.30831 19.5252 8.26123 18.9705 7.63525C18.724 7.35718 18.5063 7.23136 18.3043 7.18104Z" fill="black" fill-opacity="0.25"/>
<path fill-rule="evenodd" clip-rule="evenodd" d="M19.2202 23.3408C18.837 24.454 18.8104 26.0085 18.9468 27.5384C19.0957 29.2085 19.2932 30.6861 19.8325 31.6883C20.0797 32.1476 20.3644 32.4365 20.6983 32.6086C21.0329 32.7812 21.5555 32.908 22.4025 32.8C22.9917 32.7248 23.3755 32.5217 23.6494 32.2727C23.9358 32.0124 24.1774 31.632 24.3574 31.1035C24.7301 30.0088 24.7569 28.523 24.5863 27.0102C24.4234 25.5665 24.0243 24.2104 23.4007 23.2595C22.8091 22.3574 22.0803 21.891 21.1057 21.891C20.496 21.891 20.1385 22.0554 19.9004 22.2495C19.6419 22.4601 19.4045 22.8054 19.2202 23.3408ZM18.0405 19.9674C18.8659 19.2947 19.9029 18.947 21.1057 18.947C23.2973 18.947 24.8627 20.1205 25.8625 21.645C26.8302 23.1207 27.3197 24.9777 27.5117 26.6802C27.6993 28.3428 27.726 30.3439 27.1442 32.0525C26.8469 32.9256 26.3725 33.776 25.6297 34.4512C24.8744 35.1378 23.9158 35.5748 22.7749 35.7203C21.4794 35.8855 20.3285 35.7304 19.3489 35.2252C18.3684 34.7196 17.6982 33.9348 17.2401 33.0834C16.3689 31.4644 16.1548 29.3734 16.0145 27.7998C15.8697 26.1767 15.8432 24.1062 16.4365 22.3825C16.7405 21.4995 17.2355 20.6235 18.0405 19.9674Z" fill="black" fill-opacity="0.25"/>
<path fill-rule="evenodd" clip-rule="evenodd" d="M7.43198 19.2502C7.42916 20.0536 6.78118 20.7082 5.97521 20.7165C5.16229 20.7249 4.49648 20.0727 4.48807 19.2598L5.95999 19.2446C4.48807 19.2598 4.48806 19.2589 4.48805 19.2579L4.48803 19.2559L4.48801 19.2515L4.48798 19.2417C4.48798 19.2347 4.48802 19.2267 4.48812 19.2177C4.48831 19.1998 4.48875 19.178 4.4896 19.1527C4.4913 19.102 4.49468 19.0367 4.50122 18.9588C4.51425 18.8036 4.54011 18.5951 4.59159 18.3512C4.6935 17.8683 4.9029 17.2134 5.34043 16.5585C6.28348 15.147 8.05094 14.0762 10.9829 14.2155C12.9719 14.31 14.1817 15.6735 14.7336 17.0789C15.2703 18.4457 15.3056 20.0825 14.8631 21.3922C13.9164 24.1947 11.2175 25.6336 9.42941 26.5869C9.40177 26.6017 9.37434 26.6163 9.34715 26.6308C8.33492 27.1708 7.63688 27.5439 7.19748 27.9244C6.99887 28.0964 6.94385 28.1968 6.93279 28.222C6.93344 28.229 6.9353 28.2421 6.94044 28.2622C6.94819 28.2926 6.95352 28.3054 6.99144 28.3358C7.04955 28.3824 7.18387 28.4604 7.44602 28.5275C7.98881 28.6665 8.77099 28.6833 9.67101 28.5978C10.5449 28.5147 11.4142 28.3474 12.0752 28.197C12.4029 28.1225 12.6732 28.0535 12.8596 28.0037C12.9527 27.9789 13.0244 27.9589 13.0716 27.9456C13.0951 27.9389 13.1125 27.9339 13.1233 27.9308L13.1354 27.9272L13.1359 27.9271M13.1359 27.9271C13.915 27.6959 14.7342 28.1399 14.9657 28.919C15.1972 29.6983 14.7532 30.5177 13.9739 30.7493L13.5547 29.3383C13.9739 30.7493 13.9733 30.7495 13.9733 30.7495L13.9725 30.7497L13.9704 30.7503L13.9642 30.7521L13.944 30.758C13.9271 30.7629 13.9034 30.7698 13.8733 30.7783C13.8131 30.7953 13.7272 30.8192 13.6191 30.8481C13.4031 30.9057 13.097 30.9838 12.7284 31.0677C11.9967 31.2341 10.9938 31.4293 9.94956 31.5286C8.93141 31.6253 7.74945 31.6442 6.71567 31.3795C5.67182 31.1122 4.46111 30.4526 4.08788 28.9903C3.91648 28.3187 3.96856 27.6598 4.23005 27.0548C4.4774 26.4824 4.87608 26.0403 5.27022 25.6989C5.97011 25.0928 6.93863 24.5775 7.78295 24.1284C7.84313 24.0963 7.90269 24.0646 7.96147 24.0333C9.9662 22.9638 11.5474 22.0089 12.074 20.45C12.2897 19.8114 12.2816 18.8893 11.9933 18.1549C11.72 17.4591 11.323 17.179 10.8431 17.1562C8.78279 17.0583 8.07374 17.7669 7.78836 18.194C7.61167 18.4585 7.51886 18.7377 7.47213 18.9592C7.44929 19.0674 7.43922 19.1536 7.43489 19.2051C7.43291 19.2288 7.4322 19.2442 7.43198 19.2502" fill="black" fill-opacity="0.25"/>
<path fill-rule="evenodd" clip-rule="evenodd" d="M32.179 16.9385C33.3139 15.3383 35.1224 14.1049 37.4918 14.4931C39.976 14.9001 41.2881 16.7231 41.8825 18.6406C42.1233 19.4171 41.689 20.2417 40.9125 20.4824C40.136 20.7232 39.3113 20.2888 39.0706 19.5123C38.6757 18.2386 38.0217 17.5632 37.0157 17.3983C36.0922 17.247 35.2879 17.644 34.5803 18.6417C34.4497 18.8259 34.3273 19.0252 34.2139 19.2367C34.5499 19.1961 34.9053 19.1364 35.2457 19.0691C35.5708 19.0048 35.8563 18.939 36.0598 18.8894C36.1612 18.8646 36.2414 18.8442 36.295 18.8302C36.3218 18.8232 36.3419 18.8179 36.3545 18.8145L36.3679 18.8109L36.3697 18.8104L36.3703 18.8103C37.154 18.5954 37.9637 19.0564 38.1789 19.8401C38.3941 20.6241 37.9331 21.4341 37.1492 21.6493L36.7594 20.2299C37.1492 21.6493 37.1492 21.6493 37.1492 21.6493L37.1455 21.6503L37.1387 21.6522L37.1163 21.6582C37.0975 21.6633 37.0709 21.6703 37.0374 21.6791C36.9703 21.6965 36.8751 21.7208 36.7571 21.7496C36.522 21.8069 36.1933 21.8827 35.8166 21.9572C35.1257 22.0938 34.1691 22.2475 33.3194 22.2356C33.305 22.3673 33.2935 22.499 33.2852 22.6303C33.2563 23.0841 33.2639 23.5473 33.3062 24.004C33.7451 24.0149 34.2086 23.9443 34.6375 23.835C34.9325 23.7599 35.1817 23.6741 35.3541 23.6084C35.4397 23.5757 35.5046 23.5487 35.5448 23.5313C35.5649 23.5227 35.5787 23.5165 35.5857 23.5133L35.5906 23.5111C36.3242 23.1667 37.1988 23.4802 37.5462 24.2132C37.8944 24.9478 37.5811 25.8256 36.8465 26.1738L36.216 24.8436C36.8465 26.1738 36.8458 26.1741 36.8458 26.1741L36.845 26.1745L36.8434 26.1752L36.8395 26.177L36.8296 26.1816C36.8221 26.1852 36.8125 26.1896 36.8011 26.1947C36.7782 26.2051 36.7478 26.2186 36.7102 26.2348C36.6353 26.2671 36.5316 26.3101 36.4034 26.359C36.1484 26.4563 35.79 26.5795 35.3641 26.6879C35.0202 26.7755 34.6098 26.8594 34.1592 26.9075C34.7335 27.8954 35.4679 28.3512 36.3727 28.316C37.4074 28.2757 38.1543 27.664 38.7001 26.4015C39.0227 25.6553 39.8891 25.3119 40.6354 25.6345C41.3816 25.9572 41.725 26.8236 41.4024 27.5698C40.5906 29.4475 39.0524 31.158 36.4871 31.2578C34.08 31.3514 32.4265 29.9013 31.49 28.1657C31.2065 27.6403 30.9776 27.0738 30.8002 26.4861C30.4878 26.4017 30.19 26.3175 29.9278 26.2414C29.6156 26.151 29.3482 26.0705 29.1583 26.0125C29.0634 25.9835 28.9876 25.96 28.9351 25.9437L28.8743 25.9247L28.852 25.9177L28.8516 25.9175C28.8516 25.9175 28.8513 25.9174 29.2955 24.514L28.8516 25.9175C28.0765 25.6723 27.6468 24.845 27.8921 24.0699C28.1373 23.2949 28.9645 22.8654 29.7395 23.1106L29.7563 23.1159L29.8104 23.1328C29.8583 23.1477 29.929 23.1696 30.0185 23.197C30.1045 23.2232 30.2077 23.2545 30.3246 23.2894C30.3218 23.0035 30.3294 22.7207 30.3471 22.4432C30.3524 22.3608 30.3585 22.2782 30.3656 22.1952C30.1821 22.1949 30.0199 22.195 29.8876 22.1952C29.7712 22.1953 29.6781 22.1956 29.6143 22.1958L29.5171 22.1962C28.7041 22.2003 28.0415 21.5447 28.0373 20.7317C28.0332 19.9188 28.6888 19.2564 29.5018 19.2522L29.509 20.6739C29.5018 19.2522 29.5018 19.2522 29.5018 19.2522L29.6043 19.2518C29.6699 19.2516 29.765 19.2513 29.8837 19.2512C30.1208 19.2508 30.4525 19.2509 30.831 19.2526C30.8862 19.2528 30.9426 19.2531 30.9998 19.2534C31.2943 18.4243 31.6864 17.633 32.179 16.9385Z" fill="black" fill-opacity="0.25"/>
<path fill-rule="evenodd" clip-rule="evenodd" d="M26.6597 13.2457L26.205 11.8457C25.4318 12.0969 25.0086 12.9273 25.2597 13.7005C25.5088 14.4675 26.3281 14.8902 27.096 14.6516C26.839 14.8832 26.5732 15.099 26.3451 15.2752C26.1889 15.3959 26.0559 15.4937 25.9633 15.5605C25.9171 15.5937 25.8813 15.6191 25.858 15.6354L25.8329 15.6529L25.8281 15.6562C25.8281 15.6562 25.8285 15.656 26.6304 16.828L25.8285 15.656L25.8281 15.6562L25.8276 15.6566C25.1574 16.1158 24.986 17.0314 25.4449 17.702C25.9039 18.373 26.82 18.5447 27.4909 18.0856L26.6597 16.8708C27.4909 18.0856 27.4914 18.0853 27.4914 18.0853L27.497 18.0815L27.5087 18.0734C27.5183 18.0668 27.5315 18.0576 27.548 18.046C27.581 18.0229 27.6273 17.9901 27.6846 17.9488C27.7991 17.8663 27.9587 17.7488 28.1449 17.605C28.5119 17.3215 29.0048 16.9182 29.4611 16.4672C29.8858 16.0474 30.412 15.4591 30.695 14.8002C30.8417 14.4584 30.9782 13.9716 30.8811 13.4224C30.7744 12.8191 30.4228 12.3447 29.9606 12.0295C29.479 11.7012 28.9512 11.5892 28.5475 11.5509C28.1314 11.5115 27.7293 11.5398 27.405 11.5823C27.0748 11.6257 26.783 11.6895 26.5757 11.7415C26.4707 11.7678 26.3841 11.7919 26.321 11.8103C26.2894 11.8195 26.2635 11.8274 26.244 11.8334L26.2196 11.8411L26.211 11.8438L26.2077 11.8449L26.2056 11.8455C26.2056 11.8455 26.205 11.8457 26.6597 13.2457Z" fill="black" fill-opacity="0.25"/>
</svg>
