<svg width="19" height="19" viewBox="0 0 19 19" fill="none" xmlns="http://www.w3.org/2000/svg">
<path d="M9.10397 0.5C4.13401 0.5 0.103905 4.63139 0.103905 9.72787C0.103905 13.805 2.68269 17.264 6.25871 18.4842C6.7085 18.5696 6.87366 18.284 6.87366 18.0402C6.87366 17.8202 6.86522 17.0933 6.86143 16.3223C4.3576 16.8804 3.82927 15.2335 3.82927 15.2335C3.41984 14.1669 2.82992 13.8832 2.82992 13.8832C2.01338 13.3105 2.89151 13.3223 2.89151 13.3223C3.79524 13.3873 4.27111 14.2732 4.27111 14.2732C5.07387 15.6839 6.37662 15.2761 6.89018 15.0403C6.97097 14.4439 7.2042 14.0367 7.46161 13.8063C5.46256 13.573 3.36113 12.7818 3.36113 9.24593C3.36113 8.23844 3.71269 7.41522 4.28841 6.76899C4.19497 6.53656 3.88693 5.59807 4.3756 4.32694C4.3756 4.32694 5.13139 4.07894 6.8513 5.27286C7.56919 5.06841 8.33911 4.96589 9.10397 4.96236C9.86883 4.96589 10.6394 5.06834 11.3586 5.27286C13.0764 4.07902 13.8311 4.32701 13.8311 4.32701C14.321 5.598 14.0128 6.53664 13.9194 6.76899C14.4964 7.41522 14.8456 8.23844 14.8456 9.24593C14.8456 12.7902 12.7402 13.5706 10.7361 13.7991C11.0589 14.0854 11.3465 14.647 11.3465 15.5079C11.3465 16.7426 11.3361 17.7363 11.3361 18.0402C11.3361 18.2859 11.4981 18.5736 11.9543 18.4829C15.5284 17.2614 18.1039 13.8037 18.1039 9.72794C18.1039 4.63139 14.0744 0.5 9.10397 0.5ZM3.47476 13.6453C3.45493 13.6911 3.38454 13.7049 3.32049 13.6734C3.25517 13.6433 3.21854 13.5808 3.23963 13.5348C3.25904 13.4876 3.32956 13.4744 3.39467 13.5061C3.46006 13.5362 3.49733 13.5993 3.47476 13.6453ZM3.91744 14.0503C3.87455 14.0911 3.7906 14.0721 3.73365 14.0077C3.67479 13.9434 3.66375 13.8573 3.70728 13.8159C3.75158 13.7751 3.83293 13.7942 3.89192 13.8585C3.95084 13.9236 3.96223 14.0091 3.91744 14.0503ZM4.22119 14.5685C4.166 14.6078 4.07586 14.5709 4.0201 14.4889C3.96497 14.4069 3.96497 14.3085 4.02129 14.269C4.07719 14.2296 4.166 14.2651 4.22246 14.3465C4.27744 14.4299 4.27744 14.5283 4.22112 14.5686L4.22119 14.5685ZM4.73475 15.1687C4.68547 15.2245 4.58035 15.2095 4.50343 15.1333C4.42475 15.0589 4.40288 14.9534 4.45238 14.8976C4.5023 14.8417 4.60798 14.8574 4.68547 14.9329C4.76351 15.0072 4.78742 15.1135 4.73475 15.1687ZM5.39864 15.3712C5.37685 15.4436 5.2756 15.4764 5.17371 15.4457C5.0719 15.4141 5.00532 15.3294 5.02585 15.2564C5.04701 15.1836 5.14868 15.1494 5.25134 15.1823C5.35301 15.2137 5.41981 15.2977 5.39864 15.3712ZM6.15408 15.4572C6.15661 15.5333 6.0702 15.5964 5.96318 15.5978C5.85561 15.6003 5.76849 15.5387 5.76729 15.4637C5.76729 15.387 5.85181 15.3245 5.95946 15.3226C6.06647 15.3204 6.15408 15.3816 6.15408 15.4572ZM6.89623 15.4281C6.90903 15.5023 6.83471 15.5786 6.72839 15.5989C6.62398 15.6184 6.52723 15.5726 6.51394 15.499C6.501 15.4229 6.57673 15.3466 6.681 15.3269C6.78746 15.3079 6.88266 15.3526 6.89623 15.4281Z" fill="black"/>
</svg>
