<svg width="19" height="19" viewBox="0 0 19 19" fill="none" xmlns="http://www.w3.org/2000/svg">
<path d="M15.4407 15.8371H12.7737V11.6603C12.7737 10.6643 12.7559 9.3822 11.3866 9.3822C9.99748 9.3822 9.78493 10.4674 9.78493 11.5878V15.8368H7.11797V7.24772H9.67826V8.42152H9.71412C9.97034 7.9834 10.3406 7.62299 10.7855 7.37865C11.2303 7.13432 11.7331 7.01522 12.2403 7.03404C14.9435 7.03404 15.4418 8.8121 15.4418 11.1252L15.4407 15.8371ZM4.1086 6.07371C3.25381 6.07385 2.56074 5.381 2.5606 4.52621C2.56046 3.67142 3.25325 2.97835 4.10804 2.97821C4.96283 2.978 5.6559 3.67086 5.65604 4.52564C5.65611 4.93613 5.49312 5.32984 5.20292 5.62015C4.91272 5.91047 4.51909 6.07362 4.1086 6.07371ZM5.44215 15.8372H2.77231V7.24772H5.44208L5.44215 15.8372ZM16.7703 0.50131H1.43215C0.707233 0.493154 0.112741 1.07386 0.103882 1.79879V17.2009C0.11246 17.9262 0.706882 18.5075 1.43208 18.4999H16.7703C17.4971 18.5089 18.0938 17.9276 18.1039 17.2009V1.79759C18.0935 1.07126 17.4967 0.490623 16.7703 0.500115" fill="black"/>
</svg>
